<svg width="60" height="38" viewBox="0 0 60 38" fill="none" xmlns="http://www.w3.org/2000/svg">
<path d="M3 16.5C1.61929 16.5 0.5 17.6193 0.5 19C0.5 20.3807 1.61929 21.5 3 21.5V16.5ZM58.7678 20.7678C59.7441 19.7915 59.7441 18.2085 58.7678 17.2322L42.8579 1.32233C41.8816 0.34602 40.2986 0.34602 39.3223 1.32233C38.346 2.29864 38.346 3.88155 39.3223 4.85786L53.4645 19L39.3223 33.1421C38.346 34.1184 38.346 35.7014 39.3223 36.6777C40.2986 37.654 41.8816 37.654 42.8579 36.6777L58.7678 20.7678ZM3 21.5L57 21.5V16.5L3 16.5V21.5Z" fill="white"/>
</svg>
