<svg width="165" height="57" viewBox="0 0 165 57" fill="none" xmlns="http://www.w3.org/2000/svg">
<path d="M33.1507 10.1917C38.7656 11.3741 44.588 15.852 46.9153 20.778C48.1349 23.3593 48.9325 26.1132 48.5664 26.4793C48.4529 26.5928 46.6146 26.6857 44.4816 26.6857H40.6035L38.3026 24.5245C33.6901 20.192 29.576 17.6388 24.4305 15.9148C21.459 14.9192 16.0588 14.9507 14.3219 15.9738C7.36223 20.0729 12.269 31.182 24.2584 38.4702C28.9893 41.3462 35.2875 42.7343 39.0889 41.739C41.6822 41.0598 44.4579 38.9874 45.6107 36.8694C46.1579 35.8636 46.6059 34.8522 46.6059 34.6218C46.6059 34.3234 43.4698 34.2027 35.7062 34.2027H24.8064V33.2631V32.3235H36.8529H48.899L48.7863 39.7466L48.6731 47.1697H47.7835H46.8935L46.957 42.5655C46.9953 39.7977 46.875 37.9613 46.6559 37.9613C46.4556 37.9613 45.9271 38.5506 45.4821 39.2708C45.0371 39.9909 43.7367 41.4146 42.5922 42.4347C31.736 52.1103 14.1069 48.9144 8.41087 36.2376C7.6118 34.4598 7.37539 33.2575 7.23031 30.2322C7.12733 28.0876 7.23256 25.5938 7.47274 24.473C8.85738 18.0166 14.6132 12.269 21.6116 10.3537C23.9318 9.71884 30.4694 9.62713 33.1507 10.1917Z" fill="white"/>
<path d="M100.429 10.1917C106.044 11.3741 111.866 15.852 114.193 20.778C115.413 23.3593 116.211 26.1132 115.844 26.4793C115.731 26.5928 113.893 26.6857 111.76 26.6857H107.882L105.581 24.5245C100.968 20.192 96.8541 17.6388 91.7086 15.9148C88.7371 14.9192 83.3368 14.9507 81.6 15.9738C74.6403 20.0729 79.5471 31.182 91.5365 38.4702C96.2673 41.3462 102.566 42.7343 106.367 41.739C108.96 41.0598 111.736 38.9874 112.889 36.8694C113.436 35.8636 113.884 34.8522 113.884 34.6218C113.884 34.3234 110.748 34.2027 102.984 34.2027H92.0845V33.2631V32.3235H104.131H116.177L116.064 39.7466L115.951 47.1697H115.062H114.172L114.235 42.5655C114.273 39.7977 114.153 37.9613 113.934 37.9613C113.734 37.9613 113.205 38.5506 112.76 39.2708C112.315 39.9909 111.015 41.4146 109.87 42.4347C99.0141 52.1103 81.385 48.9144 75.6889 36.2376C74.8899 34.4598 74.6535 33.2575 74.5084 30.2322C74.4054 28.0876 74.5106 25.5938 74.7508 24.473C76.1355 18.0166 81.8913 12.269 88.8897 10.3537C91.2099 9.71884 97.7475 9.62713 100.429 10.1917Z" fill="white"/>
<path d="M67.6539 29.1287V47.7334H63.3315H59.0092L59.013 36.1759C59.0164 24.8345 59.0329 24.5831 59.8992 22.7391C60.8825 20.6456 61.5222 19.9871 63.683 18.8438L65.1616 18.0612L59.3697 17.9571L53.5774 17.853L53.6507 14.6583C53.6909 12.9011 53.7292 11.2523 53.7356 10.9937C53.7446 10.6351 55.3946 10.5239 60.7006 10.5239H67.6539V29.1287Z" fill="white"/>
<path d="M128.738 14.4704C135.098 25.3972 139.36 32.4005 139.661 32.4227C139.85 32.4366 142.893 27.6418 146.421 21.7676C152.181 12.1799 152.946 11.0749 153.896 10.9637C154.772 10.8614 154.924 10.961 154.772 11.5395C154.672 11.924 151.523 17.3472 147.776 23.5901L140.963 34.9417L140.86 41.4316L140.757 47.9214H136.623H132.489L132.301 41.1561L132.113 34.3907L130.497 31.7597C129.608 30.3127 127.478 26.8454 125.765 24.0547C124.12 21.3748 121.87 17.7109 120.648 15.7204L120.502 15.4822C119.321 13.5582 118.258 11.7342 118.141 11.4294C117.96 10.9569 118.579 10.8908 122.348 10.9813L126.768 11.0877L128.738 14.4704Z" fill="white"/>
</svg>
